<svg width="31" height="32" viewBox="0 0 31 32" fill="none" xmlns="http://www.w3.org/2000/svg">
<path d="M12.25 28.5H18.75C18.75 30.15 17.2875 31.5 15.5 31.5C13.7125 31.5 12.25 30.15 12.25 28.5ZM30.125 25.5V27H0.875V25.5L4.125 22.5V13.5C4.125 8.85 7.375 4.8 12.25 3.45V3C12.25 1.35 13.7125 0 15.5 0C17.2875 0 18.75 1.35 18.75 3V3.45C23.625 4.8 26.875 8.85 26.875 13.5V22.5L30.125 25.5ZM23.625 13.5C23.625 9.3 20.05 6 15.5 6C10.95 6 7.375 9.3 7.375 13.5V24H23.625V13.5Z" fill="black" fill-opacity="0.75"/>
</svg>
